<svg width="76" height="76" viewBox="0 0 76 76" fill="none" xmlns="http://www.w3.org/2000/svg">
<path fill-rule="evenodd" clip-rule="evenodd" d="M0 38C0 17.0468 17.0468 0 38 0C58.9532 0 76 17.0468 76 38C76 58.9532 58.9532 76 38 76C17.0468 76 0 58.9532 0 38ZM8.08422 38.0007C8.08422 54.4961 21.5047 67.915 37.9992 67.915C54.4938 67.915 67.9143 54.4961 67.9143 38.0007C67.9143 21.5054 54.4938 8.08647 37.9992 8.08647C21.5047 8.08647 8.08422 21.5054 8.08422 38.0007Z" fill="#FFC59E"/>
<path d="M57.335 36.662H40.2577V16.1289C40.2577 14.4009 38.8568 13 37.1289 13C35.4009 13 34 14.4009 34 16.1289V39.7909C34 41.5188 35.4009 42.9197 37.1289 42.9197H57.335C59.0629 42.9197 60.4639 41.5188 60.4639 39.7909C60.4639 38.0629 59.0629 36.662 57.335 36.662Z" fill="#FFC59E"/>
</svg>
