<svg width="40" height="40" viewBox="0 0 40 40" fill="none" xmlns="http://www.w3.org/2000/svg">
<path d="M20.175 1.00042C20.1801 0.448162 19.7361 -0.0062718 19.1843 0.0162377C14.9124 0.190495 10.7985 1.73036 7.45502 4.42314C3.85132 7.32545 1.36545 11.3875 0.420957 15.9172C-0.523531 20.4469 0.131807 25.1639 2.27531 29.2646C4.41881 33.3653 7.91785 36.5959 12.1762 38.4059C16.4346 40.2159 21.1889 40.4934 25.6289 39.1911C30.069 37.8888 33.9201 35.0872 36.5262 31.2638C39.1322 27.4404 40.3319 22.8316 39.9208 18.2228C39.5394 13.9467 37.7933 9.9161 34.9542 6.71928C34.5875 6.30634 33.9523 6.30207 33.5581 6.68897V6.68897C33.164 7.07588 33.1606 7.7073 33.525 8.12228C36.0411 10.9873 37.5884 14.5854 37.9287 18.4005C38.2987 22.5484 37.219 26.6963 34.8735 30.1374C32.5281 33.5785 29.0621 36.0999 25.066 37.272C21.07 38.444 16.7912 38.1943 12.9586 36.5653C9.12606 34.9362 5.97692 32.0287 4.04777 28.3381C2.11861 24.6475 1.52881 20.4022 2.37885 16.3254C3.22889 12.2487 5.46618 8.59287 8.70951 5.98078C11.6926 3.57829 15.357 2.1955 19.166 2.01893C19.7177 1.99335 20.1699 1.55268 20.175 1.00042V1.00042Z" fill="#080606"/>
</svg>
